<svg width="85" height="95" viewBox="0 0 85 95" fill="none" xmlns="http://www.w3.org/2000/svg">
<path d="M84.9879 31.3817C84.8803 40.2049 83.3527 48.7699 80.1255 57.0121C76.3173 66.7607 70.4867 75.132 62.7198 82.169C57.298 87.0971 51.2523 91.1214 44.7118 94.3924C43.3778 95.0595 42.0654 95.2532 40.6884 94.5861C30.6194 89.5719 21.7552 82.9653 14.7198 74.1205C7.18954 64.5871 2.71441 53.7195 0.885637 41.7543C-0.319205 33.8565 -0.319205 25.9586 1.03624 18.0823C1.48806 15.4783 2.8435 14.4023 5.51137 14.2087C9.03983 13.9504 12.6328 13.8859 16.0752 13.2187C24.8749 11.5187 32.6418 7.58048 39.2684 1.49031C41.4415 -0.511058 43.5499 -0.489538 45.723 1.51183C50.6929 6.0956 56.459 9.36665 62.8489 11.5617C67.7974 13.2833 72.8749 14.2087 78.1246 14.1871C78.7055 14.1871 79.2649 14.1871 79.8458 14.2302C82.2124 14.3808 83.4603 15.5214 83.9552 17.8671C84.8803 22.3432 85.0524 26.8625 84.9879 31.3817ZM38.9457 54.279C38.4939 53.6765 38.3003 53.3106 38.0206 53.0524C35.1376 50.1687 32.2761 47.242 29.307 44.4443C26.4455 41.7543 22.0564 43.0025 21.0237 46.747C20.4643 48.7914 21.1528 50.513 22.6804 51.9979C26.7897 56.0006 30.8561 60.0464 34.9224 64.0706C37.6978 66.8037 40.3657 66.8037 43.1412 64.0276C50.736 56.431 58.3523 48.8129 65.9471 41.2163C66.3774 40.7859 66.7862 40.334 67.1519 39.8391C68.6795 37.7516 68.2707 34.8249 66.2483 33.1894C63.9892 31.3602 61.4289 31.5538 59.2344 33.7489C52.7799 40.1619 46.3469 46.5964 39.8924 53.0309C39.6127 53.3106 39.4191 53.6765 38.9457 54.279Z" fill="#E6EBFF"/>
</svg>
